<?xml version="1.0" encoding="UTF-8" standalone="no"?>
<!DOCTYPE svg PUBLIC "-//W3C//DTD SVG 1.1//EN"
 "http://www.w3.org/Graphics/SVG/1.1/DTD/svg11.dtd">
<!-- Generated by graphviz version 2.38.0 (20140413.2041)
 -->
<!-- Title: G Pages: 1 -->
<svg width="636pt" height="380pt"
 viewBox="0.00 0.00 636.29 380.00" xmlns="http://www.w3.org/2000/svg" xmlns:xlink="http://www.w3.org/1999/xlink">
<g id="graph0" class="graph" transform="scale(1 1) rotate(0) translate(4 376)">
<title>G</title>
<polygon fill="white" stroke="none" points="-4,4 -4,-376 632.287,-376 632.287,4 -4,4"/>
<g id="clust1" class="cluster"><title>cluster_Global</title>
<path fill="none" stroke="gray" d="M148.834,-98C148.834,-98 608.287,-98 608.287,-98 614.287,-98 620.287,-104 620.287,-110 620.287,-110 620.287,-352 620.287,-352 620.287,-358 614.287,-364 608.287,-364 608.287,-364 148.834,-364 148.834,-364 142.834,-364 136.834,-358 136.834,-352 136.834,-352 136.834,-110 136.834,-110 136.834,-104 142.834,-98 148.834,-98"/>
<text text-anchor="middle" x="378.56" y="-351.2" font-family="Times,serif" font-size="11.00" fill="gray">Global</text>
</g>
<g id="clust2" class="cluster"><title>cluster_\smtech</title>
<path fill="none" stroke="gray" d="M156.834,-106C156.834,-106 600.287,-106 600.287,-106 606.287,-106 612.287,-112 612.287,-118 612.287,-118 612.287,-325 612.287,-325 612.287,-331 606.287,-337 600.287,-337 600.287,-337 156.834,-337 156.834,-337 150.834,-337 144.834,-331 144.834,-325 144.834,-325 144.834,-118 144.834,-118 144.834,-112 150.834,-106 156.834,-106"/>
<text text-anchor="middle" x="378.56" y="-324.2" font-family="Times,serif" font-size="11.00" fill="gray">smtech</text>
</g>
<g id="clust3" class="cluster"><title>cluster_\smtech\ReflexiveCanvasLTI</title>
<path fill="none" stroke="gray" d="M164.834,-114C164.834,-114 592.287,-114 592.287,-114 598.287,-114 604.287,-120 604.287,-126 604.287,-126 604.287,-298 604.287,-298 604.287,-304 598.287,-310 592.287,-310 592.287,-310 164.834,-310 164.834,-310 158.834,-310 152.834,-304 152.834,-298 152.834,-298 152.834,-126 152.834,-126 152.834,-120 158.834,-114 164.834,-114"/>
<text text-anchor="middle" x="378.56" y="-297.2" font-family="Times,serif" font-size="11.00" fill="gray">ReflexiveCanvasLTI</text>
</g>
<g id="clust4" class="cluster"><title>cluster_\smtech\ReflexiveCanvasLTI\LTI</title>
<path fill="none" stroke="gray" d="M472.068,-168C472.068,-168 559.281,-168 559.281,-168 565.281,-168 571.281,-174 571.281,-180 571.281,-180 571.281,-227 571.281,-227 571.281,-233 565.281,-239 559.281,-239 559.281,-239 472.068,-239 472.068,-239 466.068,-239 460.068,-233 460.068,-227 460.068,-227 460.068,-180 460.068,-180 460.068,-174 466.068,-168 472.068,-168"/>
<text text-anchor="middle" x="515.675" y="-226.2" font-family="Times,serif" font-size="11.00" fill="gray">LTI</text>
</g>
<g id="clust5" class="cluster"><title>cluster_\smtech\ReflexiveCanvasLTI\Exception</title>
<path fill="none" stroke="gray" d="M172.834,-212C172.834,-212 359.063,-212 359.063,-212 365.063,-212 371.063,-218 371.063,-224 371.063,-224 371.063,-271 371.063,-271 371.063,-277 365.063,-283 359.063,-283 359.063,-283 172.834,-283 172.834,-283 166.834,-283 160.834,-277 160.834,-271 160.834,-271 160.834,-224 160.834,-224 160.834,-218 166.834,-212 172.834,-212"/>
<text text-anchor="middle" x="265.948" y="-270.2" font-family="Times,serif" font-size="11.00" fill="gray">Exception</text>
</g>
<!-- \\smtech\\ReflexiveCanvasLTI\\LTI\\ToolProvider -->
<g id="node1" class="node"><title>\\smtech\\ReflexiveCanvasLTI\\LTI\\ToolProvider</title>
<polygon fill="none" stroke="black" points="563.388,-212 467.962,-212 467.962,-176 563.388,-176 563.388,-212"/>
<text text-anchor="middle" x="515.675" y="-190.7" font-family="Courier,monospace" font-size="11.00">ToolProvider</text>
</g>
<!-- \\LTI_Tool_Provider -->
<g id="node5" class="node"><title>\\LTI_Tool_Provider</title>
<ellipse fill="none" stroke="black" cx="265.948" cy="-72" rx="80.7697" ry="18"/>
<text text-anchor="middle" x="265.948" y="-67.8" font-family="Times,serif" font-size="14.00" fill="gray">\LTI_Tool_Provider</text>
</g>
<!-- \\smtech\\ReflexiveCanvasLTI\\LTI\\ToolProvider&#45;&gt;\\LTI_Tool_Provider -->
<g id="edge1" class="edge"><title>\\smtech\\ReflexiveCanvasLTI\\LTI\\ToolProvider&#45;&gt;\\LTI_Tool_Provider</title>
<path fill="none" stroke="black" d="M467.653,-183.246C456.761,-180.144 445.351,-176.388 435.063,-172 385.312,-150.783 332.395,-117.26 299.508,-94.9554"/>
<polygon fill="none" stroke="black" points="301.417,-92.0208 291.188,-89.2614 297.464,-97.7976 301.417,-92.0208"/>
</g>
<!-- \\smtech\\ReflexiveCanvasLTI\\Exception\\ReflexiveCanvasLTIException -->
<g id="node2" class="node"><title>\\smtech\\ReflexiveCanvasLTI\\Exception\\ReflexiveCanvasLTIException</title>
<polygon fill="none" stroke="black" points="363.178,-256 168.719,-256 168.719,-220 363.178,-220 363.178,-256"/>
<text text-anchor="middle" x="265.948" y="-234.7" font-family="Courier,monospace" font-size="11.00">ReflexiveCanvasLTIException</text>
</g>
<!-- \\Exception -->
<g id="node6" class="node"><title>\\Exception</title>
<ellipse fill="none" stroke="black" cx="48.417" cy="-238" rx="48.3341" ry="18"/>
<text text-anchor="middle" x="48.417" y="-233.8" font-family="Times,serif" font-size="14.00" fill="gray">\Exception</text>
</g>
<!-- \\smtech\\ReflexiveCanvasLTI\\Exception\\ReflexiveCanvasLTIException&#45;&gt;\\Exception -->
<g id="edge2" class="edge"><title>\\smtech\\ReflexiveCanvasLTI\\Exception\\ReflexiveCanvasLTIException&#45;&gt;\\Exception</title>
<path fill="none" stroke="black" d="M168.53,-238C147.63,-238 126.154,-238 107.295,-238"/>
<polygon fill="none" stroke="black" points="107.106,-234.5 97.1063,-238 107.106,-241.5 107.106,-234.5"/>
</g>
<!-- \\smtech\\ReflexiveCanvasLTI\\ConfigurationException -->
<g id="node3" class="node"><title>\\smtech\\ReflexiveCanvasLTI\\ConfigurationException</title>
<polygon fill="none" stroke="black" points="596.399,-283 434.951,-283 434.951,-247 596.399,-247 596.399,-283"/>
<text text-anchor="middle" x="515.675" y="-261.7" font-family="Courier,monospace" font-size="11.00">ConfigurationException</text>
</g>
<!-- \\smtech\\ReflexiveCanvasLTI\\ConfigurationException&#45;&gt;\\smtech\\ReflexiveCanvasLTI\\Exception\\ReflexiveCanvasLTIException -->
<g id="edge3" class="edge"><title>\\smtech\\ReflexiveCanvasLTI\\ConfigurationException&#45;&gt;\\smtech\\ReflexiveCanvasLTI\\Exception\\ReflexiveCanvasLTIException</title>
<path fill="none" stroke="black" d="M434.929,-256.308C415.359,-254.175 394.099,-251.858 373.492,-249.612"/>
<polygon fill="none" stroke="black" points="373.758,-246.121 363.438,-248.517 373,-253.079 373.758,-246.121"/>
</g>
<!-- \\smtech\\ReflexiveCanvasLTI\\Toolbox -->
<g id="node4" class="node"><title>\\smtech\\ReflexiveCanvasLTI\\Toolbox</title>
<polygon fill="none" stroke="black" points="546.883,-158 484.467,-158 484.467,-122 546.883,-122 546.883,-158"/>
<text text-anchor="middle" x="515.675" y="-136.7" font-family="Courier,monospace" font-size="11.00">Toolbox</text>
</g>
<!-- \\Serializable -->
<g id="node7" class="node"><title>\\Serializable</title>
<ellipse fill="none" stroke="black" cx="265.948" cy="-18" rx="54.1058" ry="18"/>
<text text-anchor="middle" x="265.948" y="-13.8" font-family="Times,serif" font-size="14.00" fill="gray">\Serializable</text>
</g>
<!-- \\smtech\\ReflexiveCanvasLTI\\Toolbox&#45;&gt;\\Serializable -->
<g id="edge4" class="edge"><title>\\smtech\\ReflexiveCanvasLTI\\Toolbox&#45;&gt;\\Serializable</title>
<path fill="none" stroke="black" stroke-dasharray="1,5" d="M492.179,-121.665C465.017,-100.375 417.212,-65.558 371.063,-45 356.231,-38.3928 339.463,-33.159 323.786,-29.128"/>
<polygon fill="none" stroke="black" points="324.217,-25.6304 313.672,-26.6503 322.552,-32.4293 324.217,-25.6304"/>
</g>
</g>
</svg>
