<?xml version="1.0" encoding="UTF-8" standalone="no"?>
<!DOCTYPE svg PUBLIC "-//W3C//DTD SVG 1.1//EN"
 "http://www.w3.org/Graphics/SVG/1.1/DTD/svg11.dtd">
<!-- Generated by graphviz version 2.38.0 (20140413.2041)
 -->
<!-- Title: G Pages: 1 -->
<svg width="644pt" height="415pt"
 viewBox="0.00 0.00 644.29 415.00" xmlns="http://www.w3.org/2000/svg" xmlns:xlink="http://www.w3.org/1999/xlink">
<g id="graph0" class="graph" transform="scale(1 1) rotate(0) translate(4 411)">
<title>G</title>
<polygon fill="white" stroke="none" points="-4,4 -4,-411 640.287,-411 640.287,4 -4,4"/>
<g id="clust1" class="cluster"><title>cluster_Global</title>
<path fill="none" stroke="gray" d="M148.834,-98C148.834,-98 616.287,-98 616.287,-98 622.287,-98 628.287,-104 628.287,-110 628.287,-110 628.287,-387 628.287,-387 628.287,-393 622.287,-399 616.287,-399 616.287,-399 148.834,-399 148.834,-399 142.834,-399 136.834,-393 136.834,-387 136.834,-387 136.834,-110 136.834,-110 136.834,-104 142.834,-98 148.834,-98"/>
<text text-anchor="middle" x="382.56" y="-386.2" font-family="Times,serif" font-size="11.00" fill="gray">Global</text>
</g>
<g id="clust2" class="cluster"><title>cluster_\smtech</title>
<path fill="none" stroke="gray" d="M156.834,-106C156.834,-106 608.287,-106 608.287,-106 614.287,-106 620.287,-112 620.287,-118 620.287,-118 620.287,-360 620.287,-360 620.287,-366 614.287,-372 608.287,-372 608.287,-372 156.834,-372 156.834,-372 150.834,-372 144.834,-366 144.834,-360 144.834,-360 144.834,-118 144.834,-118 144.834,-112 150.834,-106 156.834,-106"/>
<text text-anchor="middle" x="382.56" y="-359.2" font-family="Times,serif" font-size="11.00" fill="gray">smtech</text>
</g>
<g id="clust3" class="cluster"><title>cluster_\smtech\ReflexiveCanvasLTI</title>
<path fill="none" stroke="gray" d="M164.834,-114C164.834,-114 600.287,-114 600.287,-114 606.287,-114 612.287,-120 612.287,-126 612.287,-126 612.287,-333 612.287,-333 612.287,-339 606.287,-345 600.287,-345 600.287,-345 164.834,-345 164.834,-345 158.834,-345 152.834,-339 152.834,-333 152.834,-333 152.834,-126 152.834,-126 152.834,-120 158.834,-114 164.834,-114"/>
<text text-anchor="middle" x="382.56" y="-332.2" font-family="Times,serif" font-size="11.00" fill="gray">ReflexiveCanvasLTI</text>
</g>
<g id="clust4" class="cluster"><title>cluster_\smtech\ReflexiveCanvasLTI\LTI</title>
<path fill="none" stroke="gray" d="M472.068,-168C472.068,-168 559.281,-168 559.281,-168 565.281,-168 571.281,-174 571.281,-180 571.281,-180 571.281,-227 571.281,-227 571.281,-233 565.281,-239 559.281,-239 559.281,-239 472.068,-239 472.068,-239 466.068,-239 460.068,-233 460.068,-227 460.068,-227 460.068,-180 460.068,-180 460.068,-174 466.068,-168 472.068,-168"/>
<text text-anchor="middle" x="515.675" y="-226.2" font-family="Times,serif" font-size="11.00" fill="gray">LTI</text>
</g>
<g id="clust5" class="cluster"><title>cluster_\smtech\ReflexiveCanvasLTI\Exception</title>
<path fill="none" stroke="gray" d="M172.834,-247C172.834,-247 592.287,-247 592.287,-247 598.287,-247 604.287,-253 604.287,-259 604.287,-259 604.287,-306 604.287,-306 604.287,-312 598.287,-318 592.287,-318 592.287,-318 172.834,-318 172.834,-318 166.834,-318 160.834,-312 160.834,-306 160.834,-306 160.834,-259 160.834,-259 160.834,-253 166.834,-247 172.834,-247"/>
<text text-anchor="middle" x="382.56" y="-305.2" font-family="Times,serif" font-size="11.00" fill="gray">Exception</text>
</g>
<!-- \\smtech\\ReflexiveCanvasLTI\\LTI\\ToolProvider -->
<g id="node1" class="node"><title>\\smtech\\ReflexiveCanvasLTI\\LTI\\ToolProvider</title>
<polygon fill="none" stroke="black" points="563.388,-212 467.962,-212 467.962,-176 563.388,-176 563.388,-212"/>
<text text-anchor="middle" x="515.675" y="-190.7" font-family="Courier,monospace" font-size="11.00">ToolProvider</text>
</g>
<!-- \\LTI_Tool_Provider -->
<g id="node5" class="node"><title>\\LTI_Tool_Provider</title>
<ellipse fill="none" stroke="black" cx="265.948" cy="-72" rx="80.7697" ry="18"/>
<text text-anchor="middle" x="265.948" y="-67.8" font-family="Times,serif" font-size="14.00" fill="gray">\LTI_Tool_Provider</text>
</g>
<!-- \\smtech\\ReflexiveCanvasLTI\\LTI\\ToolProvider&#45;&gt;\\LTI_Tool_Provider -->
<g id="edge1" class="edge"><title>\\smtech\\ReflexiveCanvasLTI\\LTI\\ToolProvider&#45;&gt;\\LTI_Tool_Provider</title>
<path fill="none" stroke="black" d="M467.653,-183.246C456.761,-180.144 445.351,-176.388 435.063,-172 385.312,-150.783 332.395,-117.26 299.508,-94.9554"/>
<polygon fill="none" stroke="black" points="301.417,-92.0208 291.188,-89.2614 297.464,-97.7976 301.417,-92.0208"/>
</g>
<!-- \\smtech\\ReflexiveCanvasLTI\\Exception\\ReflexiveCanvasLTIException -->
<g id="node2" class="node"><title>\\smtech\\ReflexiveCanvasLTI\\Exception\\ReflexiveCanvasLTIException</title>
<polygon fill="none" stroke="black" points="363.178,-291 168.719,-291 168.719,-255 363.178,-255 363.178,-291"/>
<text text-anchor="middle" x="265.948" y="-269.7" font-family="Courier,monospace" font-size="11.00">ReflexiveCanvasLTIException</text>
</g>
<!-- \\Exception -->
<g id="node6" class="node"><title>\\Exception</title>
<ellipse fill="none" stroke="black" cx="48.417" cy="-273" rx="48.3341" ry="18"/>
<text text-anchor="middle" x="48.417" y="-268.8" font-family="Times,serif" font-size="14.00" fill="gray">\Exception</text>
</g>
<!-- \\smtech\\ReflexiveCanvasLTI\\Exception\\ReflexiveCanvasLTIException&#45;&gt;\\Exception -->
<g id="edge2" class="edge"><title>\\smtech\\ReflexiveCanvasLTI\\Exception\\ReflexiveCanvasLTIException&#45;&gt;\\Exception</title>
<path fill="none" stroke="black" d="M168.53,-273C147.63,-273 126.154,-273 107.295,-273"/>
<polygon fill="none" stroke="black" points="107.106,-269.5 97.1063,-273 107.106,-276.5 107.106,-269.5"/>
</g>
<!-- \\smtech\\ReflexiveCanvasLTI\\Exception\\ConfigurationException -->
<g id="node3" class="node"><title>\\smtech\\ReflexiveCanvasLTI\\Exception\\ConfigurationException</title>
<polygon fill="none" stroke="black" points="596.399,-291 434.951,-291 434.951,-255 596.399,-255 596.399,-291"/>
<text text-anchor="middle" x="515.675" y="-269.7" font-family="Courier,monospace" font-size="11.00">ConfigurationException</text>
</g>
<!-- \\smtech\\ReflexiveCanvasLTI\\Exception\\ConfigurationException&#45;&gt;\\smtech\\ReflexiveCanvasLTI\\Exception\\ReflexiveCanvasLTIException -->
<g id="edge3" class="edge"><title>\\smtech\\ReflexiveCanvasLTI\\Exception\\ConfigurationException&#45;&gt;\\smtech\\ReflexiveCanvasLTI\\Exception\\ReflexiveCanvasLTIException</title>
<path fill="none" stroke="black" d="M434.929,-273C415.359,-273 394.099,-273 373.492,-273"/>
<polygon fill="none" stroke="black" points="373.438,-269.5 363.438,-273 373.438,-276.5 373.438,-269.5"/>
</g>
<!-- \\smtech\\ReflexiveCanvasLTI\\Toolbox -->
<g id="node4" class="node"><title>\\smtech\\ReflexiveCanvasLTI\\Toolbox</title>
<polygon fill="none" stroke="black" points="546.883,-158 484.467,-158 484.467,-122 546.883,-122 546.883,-158"/>
<text text-anchor="middle" x="515.675" y="-136.7" font-family="Courier,monospace" font-size="11.00">Toolbox</text>
</g>
<!-- \\Serializable -->
<g id="node7" class="node"><title>\\Serializable</title>
<ellipse fill="none" stroke="black" cx="265.948" cy="-18" rx="54.1058" ry="18"/>
<text text-anchor="middle" x="265.948" y="-13.8" font-family="Times,serif" font-size="14.00" fill="gray">\Serializable</text>
</g>
<!-- \\smtech\\ReflexiveCanvasLTI\\Toolbox&#45;&gt;\\Serializable -->
<g id="edge4" class="edge"><title>\\smtech\\ReflexiveCanvasLTI\\Toolbox&#45;&gt;\\Serializable</title>
<path fill="none" stroke="black" stroke-dasharray="1,5" d="M490.677,-121.905C461.762,-100.846 411.063,-66.2519 363.063,-45 350.055,-39.2407 335.508,-34.399 321.746,-30.4785"/>
<polygon fill="none" stroke="black" points="322.466,-27.047 311.897,-27.7866 320.62,-33.7993 322.466,-27.047"/>
</g>
</g>
</svg>
