<?xml version="1.0" encoding="UTF-8" standalone="no"?>
<!DOCTYPE svg PUBLIC "-//W3C//DTD SVG 1.1//EN"
 "http://www.w3.org/Graphics/SVG/1.1/DTD/svg11.dtd">
<!-- Generated by graphviz version 2.38.0 (20140413.2041)
 -->
<!-- Title: G Pages: 1 -->
<svg width="656pt" height="471pt"
 viewBox="0.00 0.00 656.09 471.00" xmlns="http://www.w3.org/2000/svg" xmlns:xlink="http://www.w3.org/1999/xlink">
<g id="graph0" class="graph" transform="scale(1 1) rotate(0) translate(4 467)">
<title>G</title>
<polygon fill="white" stroke="none" points="-4,4 -4,-467 652.09,-467 652.09,4 -4,4"/>
<g id="clust1" class="cluster"><title>cluster_Global</title>
<path fill="none" stroke="gray" d="M156.834,-98C156.834,-98 628.09,-98 628.09,-98 634.09,-98 640.09,-104 640.09,-110 640.09,-110 640.09,-443 640.09,-443 640.09,-449 634.09,-455 628.09,-455 628.09,-455 156.834,-455 156.834,-455 150.834,-455 144.834,-449 144.834,-443 144.834,-443 144.834,-110 144.834,-110 144.834,-104 150.834,-98 156.834,-98"/>
<text text-anchor="middle" x="392.462" y="-442.2" font-family="Times,serif" font-size="11.00" fill="gray">Global</text>
</g>
<g id="clust2" class="cluster"><title>cluster_\smtech</title>
<path fill="none" stroke="gray" d="M164.834,-106C164.834,-106 620.09,-106 620.09,-106 626.09,-106 632.09,-112 632.09,-118 632.09,-118 632.09,-416 632.09,-416 632.09,-422 626.09,-428 620.09,-428 620.09,-428 164.834,-428 164.834,-428 158.834,-428 152.834,-422 152.834,-416 152.834,-416 152.834,-118 152.834,-118 152.834,-112 158.834,-106 164.834,-106"/>
<text text-anchor="middle" x="392.462" y="-415.2" font-family="Times,serif" font-size="11.00" fill="gray">smtech</text>
</g>
<g id="clust3" class="cluster"><title>cluster_\smtech\ReflexiveCanvasLTI</title>
<path fill="none" stroke="gray" d="M172.834,-114C172.834,-114 612.09,-114 612.09,-114 618.09,-114 624.09,-120 624.09,-126 624.09,-126 624.09,-389 624.09,-389 624.09,-395 618.09,-401 612.09,-401 612.09,-401 172.834,-401 172.834,-401 166.834,-401 160.834,-395 160.834,-389 160.834,-389 160.834,-126 160.834,-126 160.834,-120 166.834,-114 172.834,-114"/>
<text text-anchor="middle" x="392.462" y="-388.2" font-family="Times,serif" font-size="11.00" fill="gray">ReflexiveCanvasLTI</text>
</g>
<!-- \\smtech\\ReflexiveCanvasLTI\\CanvasSettings -->
<g id="node1" class="node"><title>\\smtech\\ReflexiveCanvasLTI\\CanvasSettings</title>
<polygon fill="none" stroke="black" points="583.293,-374 474.461,-374 474.461,-338 583.293,-338 583.293,-374"/>
<text text-anchor="middle" x="528.877" y="-352.7" font-family="Courier,monospace" font-size="11.00">CanvasSettings</text>
</g>
<!-- \\smtech\\ReflexiveCanvasLTI\\ReflexiveCanvasLTI -->
<g id="node2" class="node"><title>\\smtech\\ReflexiveCanvasLTI\\ReflexiveCanvasLTI</title>
<polygon fill="none" stroke="black" points="596.196,-212 461.557,-212 461.557,-176 596.196,-176 596.196,-212"/>
<text text-anchor="middle" x="528.877" y="-190.7" font-family="Courier,monospace" font-size="11.00">ReflexiveCanvasLTI</text>
</g>
<!-- \\LTI_Tool_Provider -->
<g id="node7" class="node"><title>\\LTI_Tool_Provider</title>
<ellipse fill="none" stroke="black" cx="269.249" cy="-72" rx="80.7697" ry="18"/>
<text text-anchor="middle" x="269.249" y="-67.8" font-family="Times,serif" font-size="14.00" fill="gray">\LTI_Tool_Provider</text>
</g>
<!-- \\smtech\\ReflexiveCanvasLTI\\ReflexiveCanvasLTI&#45;&gt;\\LTI_Tool_Provider -->
<g id="edge1" class="edge"><title>\\smtech\\ReflexiveCanvasLTI\\ReflexiveCanvasLTI&#45;&gt;\\LTI_Tool_Provider</title>
<path fill="none" stroke="black" d="M461.434,-175.936C454.612,-173.275 447.903,-170.3 441.664,-167 405.587,-147.916 405.136,-130.186 369.664,-110 356.355,-102.426 341.244,-95.7737 326.893,-90.2397"/>
<polygon fill="none" stroke="black" points="327.703,-86.8063 317.11,-86.5896 325.256,-93.3646 327.703,-86.8063"/>
</g>
<!-- \\smtech\\ReflexiveCanvasLTI\\CanvasSettings_Exception -->
<g id="node3" class="node"><title>\\smtech\\ReflexiveCanvasLTI\\CanvasSettings_Exception</title>
<polygon fill="none" stroke="black" points="616.303,-320 441.451,-320 441.451,-284 616.303,-284 616.303,-320"/>
<text text-anchor="middle" x="528.877" y="-298.7" font-family="Courier,monospace" font-size="11.00">CanvasSettings_Exception</text>
</g>
<!-- \\smtech\\ReflexiveCanvasLTI\\ReflexiveCanvasLTI_Exception -->
<g id="node6" class="node"><title>\\smtech\\ReflexiveCanvasLTI\\ReflexiveCanvasLTI_Exception</title>
<polygon fill="none" stroke="black" points="369.579,-293 168.919,-293 168.919,-257 369.579,-257 369.579,-293"/>
<text text-anchor="middle" x="269.249" y="-271.7" font-family="Courier,monospace" font-size="11.00">ReflexiveCanvasLTI_Exception</text>
</g>
<!-- \\smtech\\ReflexiveCanvasLTI\\CanvasSettings_Exception&#45;&gt;\\smtech\\ReflexiveCanvasLTI\\ReflexiveCanvasLTI_Exception -->
<g id="edge2" class="edge"><title>\\smtech\\ReflexiveCanvasLTI\\CanvasSettings_Exception&#45;&gt;\\smtech\\ReflexiveCanvasLTI\\ReflexiveCanvasLTI_Exception</title>
<path fill="none" stroke="black" d="M441.374,-292.934C421.651,-290.867 400.44,-288.644 379.894,-286.491"/>
<polygon fill="none" stroke="black" points="380.181,-283.002 369.871,-285.441 379.451,-289.964 380.181,-283.002"/>
</g>
<!-- \\smtech\\ReflexiveCanvasLTI\\CanvasUser_Exception -->
<g id="node4" class="node"><title>\\smtech\\ReflexiveCanvasLTI\\CanvasUser_Exception</title>
<polygon fill="none" stroke="black" points="602.898,-266 454.855,-266 454.855,-230 602.898,-230 602.898,-266"/>
<text text-anchor="middle" x="528.877" y="-244.7" font-family="Courier,monospace" font-size="11.00">CanvasUser_Exception</text>
</g>
<!-- \\smtech\\ReflexiveCanvasLTI\\CanvasUser_Exception&#45;&gt;\\smtech\\ReflexiveCanvasLTI\\ReflexiveCanvasLTI_Exception -->
<g id="edge3" class="edge"><title>\\smtech\\ReflexiveCanvasLTI\\CanvasUser_Exception&#45;&gt;\\smtech\\ReflexiveCanvasLTI\\ReflexiveCanvasLTI_Exception</title>
<path fill="none" stroke="black" d="M454.74,-255.665C431.495,-258.101 405.254,-260.851 380.012,-263.497"/>
<polygon fill="none" stroke="black" points="379.602,-260.02 370.022,-264.544 380.332,-266.982 379.602,-260.02"/>
</g>
<!-- \\smtech\\ReflexiveCanvasLTI\\CanvasUser -->
<g id="node5" class="node"><title>\\smtech\\ReflexiveCanvasLTI\\CanvasUser</title>
<polygon fill="none" stroke="black" points="569.888,-158 487.866,-158 487.866,-122 569.888,-122 569.888,-158"/>
<text text-anchor="middle" x="528.877" y="-136.7" font-family="Courier,monospace" font-size="11.00">CanvasUser</text>
</g>
<!-- \\LTI_User -->
<g id="node8" class="node"><title>\\LTI_User</title>
<ellipse fill="none" stroke="black" cx="269.249" cy="-18" rx="46.7416" ry="18"/>
<text text-anchor="middle" x="269.249" y="-13.8" font-family="Times,serif" font-size="14.00" fill="gray">\LTI_User</text>
</g>
<!-- \\smtech\\ReflexiveCanvasLTI\\CanvasUser&#45;&gt;\\LTI_User -->
<g id="edge4" class="edge"><title>\\smtech\\ReflexiveCanvasLTI\\CanvasUser&#45;&gt;\\LTI_User</title>
<path fill="none" stroke="black" d="M502.737,-121.899C472.468,-100.834 419.473,-66.2335 369.664,-45 354.132,-38.3787 336.536,-32.9691 320.51,-28.7779"/>
<polygon fill="none" stroke="black" points="321.319,-25.3725 310.767,-26.3259 319.611,-32.1608 321.319,-25.3725"/>
</g>
<!-- \\Exception -->
<g id="node9" class="node"><title>\\Exception</title>
<ellipse fill="none" stroke="black" cx="48.417" cy="-275" rx="48.3341" ry="18"/>
<text text-anchor="middle" x="48.417" y="-270.8" font-family="Times,serif" font-size="14.00" fill="gray">\Exception</text>
</g>
<!-- \\smtech\\ReflexiveCanvasLTI\\ReflexiveCanvasLTI_Exception&#45;&gt;\\Exception -->
<g id="edge5" class="edge"><title>\\smtech\\ReflexiveCanvasLTI\\ReflexiveCanvasLTI_Exception&#45;&gt;\\Exception</title>
<path fill="none" stroke="black" d="M168.758,-275C147.705,-275 126.157,-275 107.268,-275"/>
<polygon fill="none" stroke="black" points="107.067,-271.5 97.0673,-275 107.067,-278.5 107.067,-271.5"/>
</g>
</g>
</svg>
