<?xml version="1.0" encoding="UTF-8" standalone="no"?>
<!DOCTYPE svg PUBLIC "-//W3C//DTD SVG 1.1//EN"
 "http://www.w3.org/Graphics/SVG/1.1/DTD/svg11.dtd">
<!-- Generated by graphviz version 2.40.1 (20161225.0304)
 -->
<!-- Title: G Pages: 1 -->
<svg width="644pt" height="415pt"
 viewBox="0.00 0.00 644.29 415.00" xmlns="http://www.w3.org/2000/svg" xmlns:xlink="http://www.w3.org/1999/xlink">
<g id="graph0" class="graph" transform="scale(1 1) rotate(0) translate(4 411)">
<title>G</title>
<polygon fill="#ffffff" stroke="transparent" points="-4,4 -4,-411 640.2866,-411 640.2866,4 -4,4"/>
<g id="clust1" class="cluster">
<title>cluster_Global</title>
<path fill="none" stroke="#c0c0c0" d="M148.834,-98C148.834,-98 616.2866,-98 616.2866,-98 622.2866,-98 628.2866,-104 628.2866,-110 628.2866,-110 628.2866,-387 628.2866,-387 628.2866,-393 622.2866,-399 616.2866,-399 616.2866,-399 148.834,-399 148.834,-399 142.834,-399 136.834,-393 136.834,-387 136.834,-387 136.834,-110 136.834,-110 136.834,-104 142.834,-98 148.834,-98"/>
<text text-anchor="middle" x="382.5603" y="-386.2" font-family="Times,serif" font-size="11.00" fill="#c0c0c0">Global</text>
</g>
<g id="clust2" class="cluster">
<title>cluster_\smtech</title>
<path fill="none" stroke="#c0c0c0" d="M156.834,-106C156.834,-106 608.2866,-106 608.2866,-106 614.2866,-106 620.2866,-112 620.2866,-118 620.2866,-118 620.2866,-360 620.2866,-360 620.2866,-366 614.2866,-372 608.2866,-372 608.2866,-372 156.834,-372 156.834,-372 150.834,-372 144.834,-366 144.834,-360 144.834,-360 144.834,-118 144.834,-118 144.834,-112 150.834,-106 156.834,-106"/>
<text text-anchor="middle" x="382.5603" y="-359.2" font-family="Times,serif" font-size="11.00" fill="#c0c0c0">smtech</text>
</g>
<g id="clust3" class="cluster">
<title>cluster_\smtech\ReflexiveCanvasLTI</title>
<path fill="none" stroke="#c0c0c0" d="M164.834,-114C164.834,-114 600.2866,-114 600.2866,-114 606.2866,-114 612.2866,-120 612.2866,-126 612.2866,-126 612.2866,-333 612.2866,-333 612.2866,-339 606.2866,-345 600.2866,-345 600.2866,-345 164.834,-345 164.834,-345 158.834,-345 152.834,-339 152.834,-333 152.834,-333 152.834,-126 152.834,-126 152.834,-120 158.834,-114 164.834,-114"/>
<text text-anchor="middle" x="382.5603" y="-332.2" font-family="Times,serif" font-size="11.00" fill="#c0c0c0">ReflexiveCanvasLTI</text>
</g>
<g id="clust4" class="cluster">
<title>cluster_\smtech\ReflexiveCanvasLTI\LTI</title>
<path fill="none" stroke="#c0c0c0" d="M472.0684,-168C472.0684,-168 559.2812,-168 559.2812,-168 565.2812,-168 571.2812,-174 571.2812,-180 571.2812,-180 571.2812,-227 571.2812,-227 571.2812,-233 565.2812,-239 559.2812,-239 559.2812,-239 472.0684,-239 472.0684,-239 466.0684,-239 460.0684,-233 460.0684,-227 460.0684,-227 460.0684,-180 460.0684,-180 460.0684,-174 466.0684,-168 472.0684,-168"/>
<text text-anchor="middle" x="515.6748" y="-226.2" font-family="Times,serif" font-size="11.00" fill="#c0c0c0">LTI</text>
</g>
<g id="clust5" class="cluster">
<title>cluster_\smtech\ReflexiveCanvasLTI\Exception</title>
<path fill="none" stroke="#c0c0c0" d="M172.834,-247C172.834,-247 592.2866,-247 592.2866,-247 598.2866,-247 604.2866,-253 604.2866,-259 604.2866,-259 604.2866,-306 604.2866,-306 604.2866,-312 598.2866,-318 592.2866,-318 592.2866,-318 172.834,-318 172.834,-318 166.834,-318 160.834,-312 160.834,-306 160.834,-306 160.834,-259 160.834,-259 160.834,-253 166.834,-247 172.834,-247"/>
<text text-anchor="middle" x="382.5603" y="-305.2" font-family="Times,serif" font-size="11.00" fill="#c0c0c0">Exception</text>
</g>
<!-- \\smtech\\ReflexiveCanvasLTI\\LTI\\ToolProvider -->
<g id="node1" class="node">
<title>\\smtech\\ReflexiveCanvasLTI\\LTI\\ToolProvider</title>
<polygon fill="none" stroke="#000000" points="563.3879,-212 467.9617,-212 467.9617,-176 563.3879,-176 563.3879,-212"/>
<text text-anchor="middle" x="515.6748" y="-190.7" font-family="Courier,monospace" font-size="11.00" fill="#000000">ToolProvider</text>
</g>
<!-- \\LTI_Tool_Provider -->
<g id="node5" class="node">
<title>\\LTI_Tool_Provider</title>
<ellipse fill="none" stroke="#000000" cx="265.9485" cy="-72" rx="80.7697" ry="18"/>
<text text-anchor="middle" x="265.9485" y="-67.8" font-family="Times,serif" font-size="14.00" fill="#c0c0c0">\LTI_Tool_Provider</text>
</g>
<!-- \\smtech\\ReflexiveCanvasLTI\\LTI\\ToolProvider&#45;&gt;\\LTI_Tool_Provider -->
<g id="edge1" class="edge">
<title>\\smtech\\ReflexiveCanvasLTI\\LTI\\ToolProvider&#45;&gt;\\LTI_Tool_Provider</title>
<path fill="none" stroke="#000000" d="M468.0681,-183.2768C457.0386,-180.1732 445.4842,-176.4087 435.063,-172 385.0313,-150.8341 331.796,-117.2988 298.7084,-94.9774"/>
<polygon fill="none" stroke="#000000" points="300.5734,-92.0131 290.3374,-89.2789 296.6342,-97.7995 300.5734,-92.0131"/>
</g>
<!-- \\smtech\\ReflexiveCanvasLTI\\Exception\\ReflexiveCanvasLTIException -->
<g id="node2" class="node">
<title>\\smtech\\ReflexiveCanvasLTI\\Exception\\ReflexiveCanvasLTIException</title>
<polygon fill="none" stroke="#000000" points="363.1776,-291 168.7193,-291 168.7193,-255 363.1776,-255 363.1776,-291"/>
<text text-anchor="middle" x="265.9485" y="-269.7" font-family="Courier,monospace" font-size="11.00" fill="#000000">ReflexiveCanvasLTIException</text>
</g>
<!-- \\Exception -->
<g id="node6" class="node">
<title>\\Exception</title>
<ellipse fill="none" stroke="#000000" cx="48.417" cy="-273" rx="48.3341" ry="18"/>
<text text-anchor="middle" x="48.417" y="-268.8" font-family="Times,serif" font-size="14.00" fill="#c0c0c0">\Exception</text>
</g>
<!-- \\smtech\\ReflexiveCanvasLTI\\Exception\\ReflexiveCanvasLTIException&#45;&gt;\\Exception -->
<g id="edge2" class="edge">
<title>\\smtech\\ReflexiveCanvasLTI\\Exception\\ReflexiveCanvasLTIException&#45;&gt;\\Exception</title>
<path fill="none" stroke="#000000" d="M168.6352,-273C147.6368,-273 126.0626,-273 107.0902,-273"/>
<polygon fill="none" stroke="#000000" points="106.8378,-269.5001 96.8378,-273 106.8378,-276.5001 106.8378,-269.5001"/>
</g>
<!-- \\smtech\\ReflexiveCanvasLTI\\Exception\\ConfigurationException -->
<g id="node3" class="node">
<title>\\smtech\\ReflexiveCanvasLTI\\Exception\\ConfigurationException</title>
<polygon fill="none" stroke="#000000" points="596.3986,-291 434.951,-291 434.951,-255 596.3986,-255 596.3986,-291"/>
<text text-anchor="middle" x="515.6748" y="-269.7" font-family="Courier,monospace" font-size="11.00" fill="#000000">ConfigurationException</text>
</g>
<!-- \\smtech\\ReflexiveCanvasLTI\\Exception\\ConfigurationException&#45;&gt;\\smtech\\ReflexiveCanvasLTI\\Exception\\ReflexiveCanvasLTIException -->
<g id="edge3" class="edge">
<title>\\smtech\\ReflexiveCanvasLTI\\Exception\\ConfigurationException&#45;&gt;\\smtech\\ReflexiveCanvasLTI\\Exception\\ReflexiveCanvasLTIException</title>
<path fill="none" stroke="#000000" d="M434.9407,-273C415.3466,-273 394.0887,-273 373.4738,-273"/>
<polygon fill="none" stroke="#000000" points="373.4156,-269.5001 363.4155,-273 373.4155,-276.5001 373.4156,-269.5001"/>
</g>
<!-- \\smtech\\ReflexiveCanvasLTI\\Toolbox -->
<g id="node4" class="node">
<title>\\smtech\\ReflexiveCanvasLTI\\Toolbox</title>
<polygon fill="none" stroke="#000000" points="546.8827,-158 484.4669,-158 484.4669,-122 546.8827,-122 546.8827,-158"/>
<text text-anchor="middle" x="515.6748" y="-136.7" font-family="Courier,monospace" font-size="11.00" fill="#000000">Toolbox</text>
</g>
<!-- \\Serializable -->
<g id="node7" class="node">
<title>\\Serializable</title>
<ellipse fill="none" stroke="#000000" cx="265.9485" cy="-18" rx="54.1058" ry="18"/>
<text text-anchor="middle" x="265.9485" y="-13.8" font-family="Times,serif" font-size="14.00" fill="#c0c0c0">\Serializable</text>
</g>
<!-- \\smtech\\ReflexiveCanvasLTI\\Toolbox&#45;&gt;\\Serializable -->
<g id="edge4" class="edge">
<title>\\smtech\\ReflexiveCanvasLTI\\Toolbox&#45;&gt;\\Serializable</title>
<path fill="none" stroke="#000000" stroke-dasharray="1,5" d="M491.5085,-121.8929C462.3929,-100.8223 411.351,-66.2166 363.063,-45 350.0419,-39.2788 335.5003,-34.469 321.7162,-30.5684"/>
<polygon fill="none" stroke="#000000" points="322.4132,-27.1311 311.8456,-27.8889 320.5793,-33.8866 322.4132,-27.1311"/>
</g>
</g>
</svg>
